<?xml version="1.0" encoding="UTF-8" standalone="no"?>
<!-- Created with Inkscape (http://www.inkscape.org/) -->

<svg
   width="189.96657mm"
   height="146.7832mm"
   viewBox="0 0 189.96656 146.7832"
   version="1.1"
   id="svg5"
   inkscape:version="1.1.1 (26b7af14f2, 2022-01-19)"
   sodipodi:docname="logo-vivian.svg"
   xmlns:inkscape="http://www.inkscape.org/namespaces/inkscape"
   xmlns:sodipodi="http://sodipodi.sourceforge.net/DTD/sodipodi-0.dtd"
   xmlns="http://www.w3.org/2000/svg"
   xmlns:svg="http://www.w3.org/2000/svg">
  <sodipodi:namedview
     id="namedview7"
     pagecolor="#505050"
     bordercolor="#eeeeee"
     borderopacity="1"
     inkscape:pageshadow="0"
     inkscape:pageopacity="0"
     inkscape:pagecheckerboard="0"
     inkscape:document-units="mm"
     showgrid="false"
     fit-margin-top="0"
     fit-margin-left="0"
     fit-margin-right="0"
     fit-margin-bottom="0"
     inkscape:zoom="0.41890224"
     inkscape:cx="435.66251"
     inkscape:cy="373.59552"
     inkscape:window-width="1600"
     inkscape:window-height="841"
     inkscape:window-x="0"
     inkscape:window-y="27"
     inkscape:window-maximized="1"
     inkscape:current-layer="layer1" />
  <defs
     id="defs2" />
  <g
     inkscape:label="Capa 1"
     inkscape:groupmode="layer"
     id="layer1"
     transform="translate(21.621463,37.18405)">
    <path
       style="fill:#97676f;stroke-width:0.264583;fill-opacity:1"
       d="m 2.1696502,109.41658 c -2.37042298,-0.56623 -3.199461,-2.42067 -4.737608,-10.597507 -2.106086,-11.19601 -8.3069362,-50.919965 -12.5761762,-80.565624 -1.445982,-10.0409405 -3.413024,-22.7806301 -4.371202,-28.31042 -2.044779,-11.80074 -2.323825,-13.87918 -1.983547,-14.77418 0.655138,-1.72313 4.521645,-1.32612 5.262438,0.54035 1.512999,3.81207 5.503749,28.2280595 13.0081802,79.585912 1.591934,10.894669 6.252215,40.399332 6.511345,41.223912 0.08343,0.26548 0.346078,0.44061 0.590653,0.39383 0.325459,-0.0623 0.841148,-1.43013 1.975694,-5.24058 C 15.05116,60.767647 22.295314,40.170258 32.842254,14.923239 37.246643,4.3801085 43.319037,-8.0006411 50.025576,-20.111141 c 3.783976,-6.833 8.526148,-14.84375 9.29503,-15.7017 1.716439,-1.91526 5.186253,-1.79531 5.186253,0.17929 0,0.43763 -1.254569,2.8933 -3.202664,6.26885 C 51.226922,-11.903371 43.043883,5.3889885 33.887482,28.572195 26.177085,48.094238 20.325301,65.160551 13.066851,89.294073 8.2549932,105.29294 7.5708012,107.40215 6.9025142,108.29724 c -0.845801,1.13286 -2.770529,1.58805 -4.732864,1.11934 z M 73.224709,93.748573 c -1.05686,-1.50411 -2.44471,-3.47885 -3.08412,-4.38836 -1.04343,-1.4842 -1.25607,-1.65364 -2.07523,-1.65364 h -0.91267 v 4.23333 4.23333 h -1.45521 -1.45521 v -8.99583 -8.995833 h 3.92927 c 4.155,0 5.17578,0.192246 6.5882,1.240843 1.58,1.173 2.07302,3.06345 1.28855,4.94093 -0.45711,1.09403 -1.46338,1.89609 -3.1146,2.48256 -0.7057,0.25064 -1.28174,0.51705 -1.2801,0.59204 0.002,0.075 1.55738,2.0235 3.45718,4.33003 1.89981,2.30651 3.41651,4.22789 3.37046,4.26972 -0.0461,0.0418 -0.81527,0.1592 -1.70935,0.2608 l -1.62561,0.18478 z m -1.7959,-7.78976 c 1.18954,-0.60526 1.80941,-1.62825 1.80831,-2.98429 -0.002,-2.3944 -1.76753,-3.95732 -4.06749,-3.600582 -2.1663,0.335994 -2.01694,0.04913 -2.01694,3.873602 v 3.44281 l 1.78594,-0.18661 c 0.98226,-0.10263 2.10285,-0.34784 2.49018,-0.54493 z m -28.617785,9.67338 c -4.086027,-1.46556 -6.14253,-4.77092 -5.728288,-9.20695 0.421376,-4.51239 3.63524,-7.730091 8.496594,-8.506696 1.82232,-0.291121 2.696427,-0.239527 5.344985,0.315384 l 1.36642,0.286305 -0.147098,0.955146 c -0.0809,0.52533 -0.180364,0.995341 -0.221025,1.044471 -0.04066,0.0491 -0.966541,-0.218759 -2.057514,-0.595314 -3.381533,-1.16713 -5.55758,-0.81751 -7.595494,1.220414 -1.511006,1.51099 -1.972384,2.89269 -1.970196,5.90016 0.0024,3.15698 0.637995,4.91133 2.292961,6.32793 2.110828,1.80679 6.124231,2.25468 8.651285,0.96547 1.384388,-0.70626 1.405396,-0.70123 1.307571,0.31337 -0.07475,0.77531 -0.200014,0.89032 -1.273535,1.16933 -2.01672,0.52413 -6.774518,0.41793 -8.466666,-0.18902 z m 72.495836,-8.45479 V 78.18157 h 5.29167 5.29167 v 0.926041 c 0,1.075849 0.10351,1.058148 -3.00723,0.514033 -1.29017,-0.225663 -2.71892,-0.335465 -3.175,-0.243972 -1.8768,0.376449 -1.75527,0.128296 -1.75527,3.584231 v 3.15717 h 2.91041 c 2.73403,0 2.91042,0.0321 2.91042,0.52916 0,0.4971 -0.17639,0.52917 -2.91042,0.52917 h -2.91041 v 4.49792 4.49791 h -1.32292 -1.32292 z m 24.87084,0.66146 v -8.334377 l -1.25678,0.0032 c -0.69122,0.0026 -1.91161,0.178912 -2.71197,0.393727 -0.80037,0.214815 -1.48498,0.392006 -1.52136,0.393726 -0.0364,0.0026 -0.0661,-0.473101 -0.0661,-1.055185 v -1.058333 h 6.99482 6.99482 l -0.1531,0.992188 c -0.0842,0.545703 -0.17156,1.017561 -0.19411,1.048596 -0.0225,0.03101 -0.69031,-0.11639 -1.4839,-0.327607 -0.7936,-0.21119 -2.00846,-0.385392 -2.69968,-0.387112 l -1.25677,-0.0032 v 8.334377 8.33437 h -1.32292 -1.32291 z m -52.387511,7.88868 c 0,-0.11803 1.75617,-4.2333 3.90261,-9.14503 2.63741,-6.03525 4.0211,-8.90889 4.26812,-8.864096 0.27533,0.04993 8.233441,17.552906 8.233441,18.108536 0,0.0588 -0.73588,0.0715 -1.6353,0.0282 l -1.6353,-0.0788 -0.944391,-2.31455 -0.94439,-2.31458 h -3.83645 -3.83646 l -0.94375,2.31458 c -0.88613,2.17326 -0.99516,2.3196 -1.78594,2.39747 -0.4632,0.0456 -0.84219,-0.0138 -0.84219,-0.13174 z m 10.58334,-5.83456 c 0,-0.42326 -3.01715,-7.74266 -3.19161,-7.74266 -0.10244,0 -0.24638,0.20836 -0.31985,0.46302 -0.0735,0.25466 -0.79213,2.0406 -1.59701,3.96875 l -1.46342,3.50573 h 3.28594 c 1.80727,0 3.28595,-0.0877 3.28595,-0.19484 z M 62.261272,68.881571 c -2.710913,-0.623967 -4.465434,-3.136053 -5.565698,-7.968853 -0.705242,-3.097715 -0.713105,-3.106658 -1.519217,-1.731142 -0.384563,0.656219 -1.548712,2.10275 -2.586992,3.214529 -2.465692,2.64025 -4.996103,3.982852 -7.482203,3.969967 -0.899072,-0.0048 -2.068015,-0.194019 -2.597647,-0.420767 -1.400561,-0.599678 -3.075117,-2.217341 -3.886232,-3.754226 -0.698653,-1.323816 -0.706998,-1.402556 -0.702632,-6.631384 0.0052,-6.193076 0.37547,-8.227034 1.722067,-9.458855 0.913368,-0.835501 2.420284,-0.983747 3.353771,-0.329908 1.03384,0.724138 1.171503,1.787101 0.883465,6.821805 -0.341588,5.970666 -0.01376,7.988141 1.490998,9.175935 1.762734,1.391444 4.590754,0.04067 7.521266,-3.592433 2.647418,-3.282104 2.599264,-3.123698 2.202619,-7.246753 -0.510834,-5.310002 -0.176864,-6.618076 1.703345,-6.671521 1.602026,-0.04556 1.732404,0.284771 2.163352,5.480896 0.689555,8.314267 2.524162,15.478125 3.963818,15.478125 0.513702,0 1.493467,-1.132019 2.175457,-2.513541 0.36314,-0.735621 2.06246,-6.598312 3.39046,-11.697203 0.7043,-2.704174 1.78053,-4.467781 3.05019,-4.99827 0.92269,-0.385525 1.35403,-0.353589 2.82113,0.208862 0.88403,0.338905 0.93944,1.067223 0.28605,3.759941 -0.56115,2.312617 -0.26722,3.004185 1.5042,3.539172 1.07838,0.325676 4.32033,0.320834 4.64811,-0.0069 0.0687,-0.06869 0.23498,-1.064128 0.36956,-2.212102 0.51884,-4.425923 1.42162,-5.931694 3.54651,-5.915263 0.59884,0.0045 1.27771,0.153458 1.5086,0.330729 0.98906,0.759381 1.06098,1.340247 0.87272,7.049188 -0.20333,6.16585 -0.0277,7.414525 1.2328,8.763873 1.48307,1.587606 3.86289,0.858732 6.67276,-2.043721 0.97898,-1.011237 1.43336,-1.790673 2.03399,-3.489193 1.16104,-3.283241 2.59231,-5.295688 5.309231,-7.46506 4.05769,-3.239928 8.28247,-4.181422 12.29828,-2.740686 1.01865,0.365469 2.04506,0.72943 2.28092,0.808831 0.30013,0.101045 0.47996,-0.05927 0.59915,-0.534194 0.37602,-1.498176 3.58347,-2.053907 4.80488,-0.832511 0.77441,0.774435 0.81762,1.610492 0.26044,5.039122 -1.01152,6.224402 -0.79945,8.846635 0.86728,10.724039 0.81862,0.922099 1.1786,1.123103 2.22155,1.240499 2.10987,0.237463 4.36925,-1.268651 7.82714,-5.217663 l 1.96927,-2.248958 -0.18828,-3.910013 c -0.16101,-3.343778 -0.12739,-4.002961 0.23216,-4.551706 0.77725,-1.186233 3.50459,-1.196367 4.27806,-0.01587 0.23181,0.353774 0.49343,1.725215 0.6308,3.306709 0.1291,1.486191 0.31703,2.781406 0.41762,2.878217 0.10059,0.09681 0.34426,-0.0621 0.54147,-0.353139 4.33165,-6.392466 8.30838,-9.251368 12.22359,-8.787686 1.79842,0.213016 2.57759,0.636323 3.42386,1.860233 l 0.73718,1.066112 -0.0998,4.518183 c -0.23097,10.456731 -0.2164,10.893399 0.39055,11.709215 1.5655,2.104258 3.66853,0.200396 8.17285,-7.398835 0.84403,-1.423934 1.66626,-2.54246 1.82716,-2.485575 0.91329,0.322871 -0.5135,5.154745 -2.5472,8.626184 -1.13476,1.936988 -4.25416,5.06521 -5.77658,5.792893 -1.40246,0.670349 -3.5222,0.763826 -4.83954,0.213387 -1.16717,-0.487654 -2.38319,-2.016337 -2.93518,-3.689826 -0.71734,-2.174769 -0.79519,-5.016791 -0.27246,-9.945635 0.48419,-4.565465 0.39794,-6.062662 -0.36386,-6.316609 -0.67286,-0.224288 -3.2989,2.899515 -4.84554,5.764 -1.65574,3.066521 -3.52027,7.333695 -4.45096,10.186459 -1.22437,3.752956 -1.96508,4.630208 -3.90951,4.630208 -0.8616,0 -1.30399,-0.160205 -1.79321,-0.64942 -0.58594,-0.585946 -0.65199,-0.876961 -0.6756,-2.976562 -0.0144,-1.279922 -0.10369,-2.974711 -0.19844,-3.766159 l -0.17227,-1.439016 -0.71405,1.08212 c -2.55985,3.879453 -6.44524,5.938546 -11.32277,6.000591 -2.00334,0.0254 -2.42513,-0.05858 -3.83818,-0.765096 -1.38587,-0.692943 -1.6837,-0.983985 -2.34495,-2.291556 -0.4166,-0.823807 -0.81934,-2.046922 -0.89499,-2.718064 -0.0756,-0.671143 -0.21649,-1.269048 -0.313,-1.328685 -0.0965,-0.05964 -0.70578,0.793115 -1.35396,1.894999 -1.7319,2.944124 -4.14143,5.431234 -6.28349,6.485784 -1.61824,0.796634 -1.96999,0.867939 -4.28217,0.867939 -2.27239,0 -2.67345,-0.07773 -4.095111,-0.79375 -1.90713,-0.960517 -2.90858,-2.163366 -3.41436,-4.101042 -0.26527,-1.016238 -0.43479,-1.319741 -0.56197,-1.006131 -0.3736,0.921253 -3.51654,3.037391 -5.42041,3.649557 -1.65305,0.531521 -2.04299,0.567796 -3.32906,0.30951 -1.64542,-0.330439 -3.40175,-1.425761 -4.41377,-2.752593 -1.20677,-1.582156 -1.58017,-2.819374 -1.72462,-5.714444 l -0.13651,-2.735988 -0.69186,0.154226 c -0.38052,0.08485 -1.62366,0.299799 -2.76254,0.477705 -1.79337,0.280141 -2.22988,0.266224 -3.2595,-0.104034 -0.85593,-0.30779 -1.21924,-0.342212 -1.29748,-0.122952 -0.0598,0.167481 -0.65893,2.024433 -1.33147,4.126521 -1.25323,3.917103 -2.31874,6.186964 -3.52683,7.513188 -1.36375,1.497092 -3.66717,2.191967 -5.708577,1.72212 z m 44.684318,-5.553842 c 0.68995,-0.456988 1.93658,-1.641263 2.77029,-2.631731 1.71598,-2.038562 4.53521,-6.80384 5.31129,-8.977524 0.61527,-1.723258 0.50655,-1.876849 -1.80421,-2.548917 -3.3906,-0.986102 -6.82113,1.066774 -8.90991,5.331804 -1.82749,3.731525 -2.27106,8.081169 -0.93448,9.163474 0.905,0.732843 2.12592,0.617458 3.56702,-0.337106 z M 40.959488,38.627023 c -0.214397,-0.258339 -0.288557,-0.952966 -0.213103,-1.996094 0.151074,-2.088568 0.930478,-2.967482 2.665499,-3.005812 1.415767,-0.03128 2.044973,0.431686 2.044973,1.504667 0,1.080744 -1.162741,3.003283 -2.113817,3.495096 -0.982247,0.507947 -1.963042,0.50882 -2.383552,0.0026 z m 43.135841,-0.11557 c -0.41696,-0.779095 -0.32681,-2.42334 0.18954,-3.456967 0.79493,-1.591267 3.31158,-2.0038 4.17599,-0.684535 0.54359,0.82962 0.0657,2.296528 -1.17206,3.597675 -0.81022,0.851722 -1.18915,1.05561 -1.96187,1.05561 -0.67607,0 -1.03825,-0.150495 -1.2316,-0.511783 z"
       id="path1165" />
    <path
       style="fill:#000000;stroke-width:0.264583"
       id="path857"
       d="" />
  </g>
</svg>
